<?xml version="1.0" encoding="utf-8"?>
<svg version="1.1" xmlns:xlink="http://www.w3.org/1999/xlink" width="100px" height="28px" xmlns="http://www.w3.org/2000/svg">
  <g transform="matrix(1 0 0 1 -1365 -1002 )">
    <path d="M 1366 1005  A 2 2 0 0 1 1368 1003 L 1462 1003  A 2 2 0 0 1 1464 1005 L 1464 1027  A 2 2 0 0 1 1462 1029 L 1368 1029  A 2 2 0 0 1 1366 1027 L 1366 1005  Z " fill-rule="nonzero" fill="#ffffff" stroke="none" />
    <path d="M 1365.5 1005  A 2.5 2.5 0 0 1 1368 1002.5 L 1462 1002.5  A 2.5 2.5 0 0 1 1464.5 1005 L 1464.5 1027  A 2.5 2.5 0 0 1 1462 1029.5 L 1368 1029.5  A 2.5 2.5 0 0 1 1365.5 1027 L 1365.5 1005  Z " stroke-width="1" stroke="#000000" fill="none" stroke-opacity="0.149019607843137" />
  </g>
</svg>