<?xml version="1.0" encoding="utf-8"?>
<svg version="1.1" xmlns:xlink="http://www.w3.org/1999/xlink" width="45px" height="28px" xmlns="http://www.w3.org/2000/svg">
  <g transform="matrix(1 0 0 1 -786 -1002 )">
    <path d="M 787 1005  A 2 2 0 0 1 789 1003 L 828 1003  A 2 2 0 0 1 830 1005 L 830 1027  A 2 2 0 0 1 828 1029 L 789 1029  A 2 2 0 0 1 787 1027 L 787 1005  Z " fill-rule="nonzero" fill="#ffffff" stroke="none" />
    <path d="M 786.5 1005  A 2.5 2.5 0 0 1 789 1002.5 L 828 1002.5  A 2.5 2.5 0 0 1 830.5 1005 L 830.5 1027  A 2.5 2.5 0 0 1 828 1029.5 L 789 1029.5  A 2.5 2.5 0 0 1 786.5 1027 L 786.5 1005  Z " stroke-width="1" stroke="#000000" fill="none" stroke-opacity="0.149019607843137" />
  </g>
</svg>