<?xml version="1.0" encoding="utf-8"?>
<svg version="1.1" xmlns:xlink="http://www.w3.org/1999/xlink" width="18px" height="14px" xmlns="http://www.w3.org/2000/svg">
  <g transform="matrix(1 0 0 1 -1457 -384 )">
    <path d="M 18 2.33333332763672  C 18 1.89583332763672  17.6999999941406 1.60416665527344  17.2499999941406 1.60416667236328  L 14.9250000058594 1.60416667236328  L 14.9250000058594 1.09375  C 14.9250000058594 0.65625  14.625 0.364583327636719  14.175 0.364583327636719  L 11.5500000058594 0.364583327636719  C 11.1000000058594 0.364583327636719  10.8 0.65625  10.8 1.09375  L 10.8 1.60416667236328  L 0.750000005859375 1.60416667236328  C 0.300000005859375 1.60416667236328  0 1.89583334472656  0 2.33333332763672  C 0 2.77083331054687  0.300000005859375 3.0625  0.750000005859375 3  L 10.8750000058594 3  L 10.8750000058594 3.57291667236328  C 10.8750000058594 4.01041667236328  11.1750000117188 4.30208334472656  11.6249999941406 4.30208332763672  L 14.2500000058594 4.30208332763672  C 14.7000000058594 4.30208332763672  15.0000000117187 4.01041665527344  14.9999999941406 3.57291667236328  L 14.9999999941406 3.0625  L 17.2499999941406 3.0625  C 17.6999999941406 3.0625  18 2.77083332763672  18 2.33333332763672  Z M 13.4249999941406 1.82291667236328  L 13.4249999941406 2.91666667236328  L 12.2999999941406 2.91666667236328  L 12.2999999941406 1.82291667236328  L 13.4249999941406 1.82291667236328  Z M 18 7  C 18 6.5625  17.6999999941406 6.27083332763672  17.2499999941406 6.27083332763672  L 5.4 6.27083332763672  L 5.4 5.76041667236328  C 5.4 5.32291667236328  5.09999999414062 5.03125  4.64999999414062 5.03125  L 2.025 5.03125  C 1.575 5.03125  1.27499999414062 5.32291667236328  1.27499999414062 5.76041667236328  L 1.27499999414062 6.27083332763672  L 0.750000005859375 6.27083332763672  C 0.300000005859375 6.27083332763672  0 6.5625  0 7  C 0 7.4375  0.300000005859375 7.72916667236328  0.750000005859375 7.72916667236328  L 1.27499999414062 7.72916667236328  L 1.27499999414062 8.23958332763672  C 1.27499999414062 8.67708332763672  1.575 8.96875  2.025 8.96875  L 4.64999999414062 8.96875  C 5.09999999414062 8.96875  5.4 8.67708332763672  5.4 8.23958332763672  L 5.4 7.72916667236328  L 17.2499999941406 7.72916667236328  C 17.6999999941406 7.72916667236328  18 7.4375  18 7  Z M 3.90000000585938 6.41666667236328  L 3.90000000585938 7.51041667236328  L 2.77500000585938 7.51041667236328  L 2.77500000585938 6.41666667236328  L 3.90000000585938 6.41666667236328  Z M 18 11.6666666723633  C 18 11.2291666894531  17.6999999941406 10.9375  17.2499999941406 10.9375  L 11.025 10.9375  L 11.025 10.4270833276367  C 11.025 9.98958332763672  10.7249999941406 9.69791665527344  10.2749999941406 9.69791667236328  L 7.65 9.69791667236328  C 7.2 9.69791667236328  6.89999999414063 9.98958334472657  6.89999999414063 10.4270833276367  L 6.89999999414063 10.9375  L 0.750000005859375 10.9375  C 0.300000005859375 10.9375  0 11.2291666723633  0 11.6666666723633  C 0 12.1041666723633  0.300000005859375 12.3958333447266  0.750000005859375 12.3958333276367  L 6.975 12.3958333276367  L 6.975 12.90625  C 6.975 13.34375  7.27500000585938 13.6354166723633  7.72500000585938 13.6354166723633  L 10.35 13.6354166723633  C 10.8 13.6354166723633  11.1000000058594 13.34375  11.1000000058594 12.90625  L 11.1000000058594 12.3958333276367  L 17.2499999941406 12.3958333276367  C 17.6999999941406 12.3958333276367  18 12.1041666552734  18 11.6666666723633  Z M 9.52500000585938 11.0833333276367  L 9.52500000585938 12.1770833276367  L 8.40000000585938 12.1770833276367  L 8.40000000585938 11.0833333276367  L 9.52500000585938 11.0833333276367  Z " fill-rule="nonzero" fill="#333333" stroke="none" transform="matrix(1 0 0 1 1457 384 )" />
  </g>
</svg>