<?xml version="1.0" encoding="utf-8"?>
<svg version="1.1" xmlns:xlink="http://www.w3.org/1999/xlink" width="16px" height="18px" xmlns="http://www.w3.org/2000/svg">
  <g transform="matrix(1 0 0 1 -1346 -327 )">
    <path d="M 14.8625 14.7  C 15.05 14.4  15.0875 13.9875  14.9375 13.6875  L 13.8125 11.1375  L 13.8125 7.5  C 13.8125 5.1  12.275 2.925  10.0625 2.0625  C 9.9875 1.0125  9.0875 0.1875  8 0.1875  C 6.9125 0.1875  6.05 1.0125  5.9375 2.0625  C 3.6875 2.925  2.1875 5.1  2.1875 7.5  L 2.1875 11.1375  L 1.0625 13.6875  C 0.9125 14.025  0.949999999999999 14.4  1.1375 14.7  C 1.325 15  1.6625 15.1875  2.0375 15  L 13.9625 15  C 14.3375 15.1875  14.675 15  14.8625 14.7  Z M 2.1125 14  L 2.1125 14.0625  L 3.3125 11.3625  L 3.3125 7.5  C 3.3125 5.4375  4.7 3.6  6.6875 3  L 7.1375 2.85  L 7.0625 2.3625  L 7.0625 2.25  C 7.0625 1.725  7.475 1.3125  8 1.3125  C 8.525 1.3125  8.9375 1.725  8.9375 2.25  L 8.9375 2.4  L 8.8625 2.8875  L 9.3125 3.0375  C 11.3 3.6375  12.6875 5.475  12.6875 7.5375  L 12.6875 11.4  L 13.8875 14  L 2.1125 14  Z M 6.125 15.75  C 6.125 16.8  6.95 17.625  8 17.625  C 9.05 17.625  9.875 16.8  9.875 15.75  L 6.125 15.75  Z " fill-rule="nonzero" fill="#000000" stroke="none" transform="matrix(1 0 0 1 1346 327 )" />
  </g>
</svg>