<?xml version="1.0" encoding="utf-8"?>
<svg version="1.1" xmlns:xlink="http://www.w3.org/1999/xlink" width="18px" height="16px" xmlns="http://www.w3.org/2000/svg">
  <g transform="matrix(1 0 0 1 -88 -378 )">
    <path d="M 16.78125 6.75  C 17.078125 6.75  17.203125 6.359375  16.953125 6.1875  L 9.375 0.765625  C 9.15625 0.609375  8.859375 0.609375  8.65625 0.765625  L 1.03125 6.1875  C 0.78125 6.359375  0.90625 6.75  1.21875 6.75  L 2.75 6.75  L 2.75 15.1875  C 2.75 15.359375  2.890625 15.5  3.0625 15.5  L 6.8125 15.5  C 6.984375 15.5  7.125 15.359375  7.125 15.1875  L 7.125 10.5  L 10.875 10.5  L 10.875 15.1875  C 10.875 15.359375  11.015625 15.5  11.1875 15.5  L 14.9375 15.5  C 15.109375 15.5  15.25 15.359375  15.25 15.1875  L 15.25 6.75  L 16.78125 6.75  Z " fill-rule="nonzero" fill="#ffffff" stroke="none" transform="matrix(1 0 0 1 88 378 )" />
  </g>
</svg>