<?xml version="1.0" encoding="utf-8"?>
<svg version="1.1" xmlns:xlink="http://www.w3.org/1999/xlink" width="13px" height="13px" xmlns="http://www.w3.org/2000/svg">
  <g transform="matrix(1 0 0 1 -355 -488 )">
    <path d="M 11.2500000058594 5.62500000585938  C 11.2500000058594 8.70000001757812  8.7 11.2500000058594  5.62500000585938 11.2500000058594  C 2.54999999414063 11.2500000058594  0 8.7  0 5.62500000585938  C 0 2.55000001171875  2.54999999414063 0  5.62500000585938 0  C 8.70000001757812 0  11.2500000058594 2.54999999414063  11.2500000058594 5.62500000585938  Z M 0.749999994140625 5.62500000585938  C 0.749999994140625 8.32500000585938  2.92500000585938 10.5  5.62500000585938 10.5  C 8.32500000585937 10.5  10.5 8.32500000585937  10.5 5.62500000585938  C 10.5 2.92500000585938  8.32500000585937 0.749999994140625  5.62500000585938 0.749999994140625  C 2.92500000585938 0.749999994140625  0.749999994140625 2.92500000585938  0.749999994140625 5.62500000585938  Z M 9.74999999414063 10.275  L 10.275 9.74999999414063  L 12.3750000058594 11.85  L 11.85 12.3750000058594  L 9.74999999414063 10.275  Z " fill-rule="nonzero" fill="#9f9f9f" stroke="none" transform="matrix(1 0 0 1 355 488 )" />
  </g>
</svg>