<?xml version="1.0" encoding="utf-8"?>
<svg version="1.1" xmlns:xlink="http://www.w3.org/1999/xlink" width="9px" height="5px" xmlns="http://www.w3.org/2000/svg">
  <g transform="matrix(1 0 0 1 -1445 -1014 )">
    <path d="M 8.38170662792964 0.114986323473343  C 8.38170662792964 0.114986323473343  8.38093005044751 0.115395687569731  8.38093005044751 0.115395687569731  L 4.49961208141026 4.10508247574352  C 4.49961208141026 4.10508247574352  0.618293927297344 0.115395687569731  0.618293927297344 0.115395687569731  C 0.545583905105744 0.0387391446807448  0.460712364452641 0.000410810021964906  0.363679415226709 0.000410810021964906  C 0.266646466000778 0.000410810021964906  0.181775110423338 0.0387391446807448  0.109065088231738 0.115395687569731  C 0.0363550660401376 0.192052230458718  0 0.281530376845212  0 0.38383003526619  C 0 0.486129693687169  0.0323443144807723 0.571379431395612  0.0970329492259313 0.639579205708776  C 0.0970329492259313 0.639579205708776  4.23296543033382 4.88501512773994  4.23296543033382 4.88501512773994  C 4.30567545252542 4.96167167062893  4.39468690441623 5  4.5 5  C 4.60531309558377 5  4.69432454747458 4.96167167062893  4.76703456966618 4.88501512773994  C 4.76703456966618 4.88501512773994  8.90296705077407 0.652264419547858  8.90296705077407 0.652264419547858  C 8.96765568551923 0.575607876658871  9 0.483946995739726  9 0.377282551177341  C 9 0.270618106614957  8.96364493395986 0.181140350470691  8.89093491176826 0.10884859372311  C 8.81822488957666 0.0365568369755291  8.73335408922621 0.00027424501549915  8.63632114000028 0  C 8.53928819077435 -0.000271353156902597  8.45441665012124 0.0380569829749024  8.38170662792964 0.114986323473343  Z " fill-rule="nonzero" fill="#000000" stroke="none" fill-opacity="0.650980392156863" transform="matrix(1 0 0 1 1445 1014 )" />
  </g>
</svg>