<?xml version="1.0" encoding="utf-8"?>
<svg version="1.1" xmlns:xlink="http://www.w3.org/1999/xlink" width="5px" height="9px" xmlns="http://www.w3.org/2000/svg">
  <defs>
    <mask fill="white" id="clip4">
      <path d="M 4.34809283095768 0.0966531774637052  C 4.34809283095768 0.0966531774637052  0.114994323070004 4.23294240886623  0.114994323070004 4.23294240886623  C 0.0383314796442291 4.30565869950248  0 4.39260732095347  0 4.4937890656427  C 0 4.59497081033193  0.0383314796442291 4.68593126369781  0.114994323070004 4.76666963910096  C 0.114994323070004 4.76666963910096  4.34809283095768 8.90295868541187  4.34809283095768 8.90295868541187  C 4.42475567438346 8.96765289706533  4.51424118733307 9  4.61654925394384 9  C 4.71885732055461 9  4.80834283350422 8.9636417997328  4.88500567693 8.89092550909655  C 4.96166852035577 8.81820921846031  5 8.73333036089904  5 8.63628904631091  C 5 8.53924773172278  4.96166852035577 8.45436887416152  4.88500567693 8.38165258352527  C 4.88500567693 8.38165258352527  0.894991079110006 4.5  0.894991079110006 4.5  C 0.894991079110006 4.5  4.88500567693 0.618347231383115  4.88500567693 0.618347231383115  C 4.96166852035577 0.545630940746867  5 0.460752083185603  5 0.363710768597471  C 5 0.26666945400934  4.96166852035577 0.181790781539694  4.88500567693 0.109074490903446  C 4.80834283350422 0.0363582002671983  4.71885732055461 0  4.61654925394384 0  C 4.51424118733307 0  4.42475567438346 0.0323471029346729  4.34809283095768 0.0970413145881317  Z " fill-rule="evenodd" />
    </mask>
  </defs>
  <g transform="matrix(1 0 0 1 -357 -1012 )">
    <path d="M 4.34809283095768 0.0966531774637052  C 4.34809283095768 0.0966531774637052  0.114994323070004 4.23294240886623  0.114994323070004 4.23294240886623  C 0.0383314796442291 4.30565869950248  0 4.39260732095347  0 4.4937890656427  C 0 4.59497081033193  0.0383314796442291 4.68593126369781  0.114994323070004 4.76666963910096  C 0.114994323070004 4.76666963910096  4.34809283095768 8.90295868541187  4.34809283095768 8.90295868541187  C 4.42475567438346 8.96765289706533  4.51424118733307 9  4.61654925394384 9  C 4.71885732055461 9  4.80834283350422 8.9636417997328  4.88500567693 8.89092550909655  C 4.96166852035577 8.81820921846031  5 8.73333036089904  5 8.63628904631091  C 5 8.53924773172278  4.96166852035577 8.45436887416152  4.88500567693 8.38165258352527  C 4.88500567693 8.38165258352527  0.894991079110006 4.5  0.894991079110006 4.5  C 0.894991079110006 4.5  4.88500567693 0.618347231383115  4.88500567693 0.618347231383115  C 4.96166852035577 0.545630940746867  5 0.460752083185603  5 0.363710768597471  C 5 0.26666945400934  4.96166852035577 0.181790781539694  4.88500567693 0.109074490903446  C 4.80834283350422 0.0363582002671983  4.71885732055461 0  4.61654925394384 0  C 4.51424118733307 0  4.42475567438346 0.0323471029346729  4.34809283095768 0.0970413145881317  Z " fill-rule="nonzero" fill="#000000" stroke="none" fill-opacity="0.250980392156863" transform="matrix(1 0 0 1 357 1012 )" />
    <path d="M 4.34809283095768 0.0966531774637052  C 4.34809283095768 0.0966531774637052  0.114994323070004 4.23294240886623  0.114994323070004 4.23294240886623  C 0.0383314796442291 4.30565869950248  0 4.39260732095347  0 4.4937890656427  C 0 4.59497081033193  0.0383314796442291 4.68593126369781  0.114994323070004 4.76666963910096  C 0.114994323070004 4.76666963910096  4.34809283095768 8.90295868541187  4.34809283095768 8.90295868541187  C 4.42475567438346 8.96765289706533  4.51424118733307 9  4.61654925394384 9  C 4.71885732055461 9  4.80834283350422 8.9636417997328  4.88500567693 8.89092550909655  C 4.96166852035577 8.81820921846031  5 8.73333036089904  5 8.63628904631091  C 5 8.53924773172278  4.96166852035577 8.45436887416152  4.88500567693 8.38165258352527  C 4.88500567693 8.38165258352527  0.894991079110006 4.5  0.894991079110006 4.5  C 0.894991079110006 4.5  4.88500567693 0.618347231383115  4.88500567693 0.618347231383115  C 4.96166852035577 0.545630940746867  5 0.460752083185603  5 0.363710768597471  C 5 0.26666945400934  4.96166852035577 0.181790781539694  4.88500567693 0.109074490903446  C 4.80834283350422 0.0363582002671983  4.71885732055461 0  4.61654925394384 0  C 4.51424118733307 0  4.42475567438346 0.0323471029346729  4.34809283095768 0.0970413145881317  Z " stroke-width="0.600000023841858" stroke="#000000" fill="none" stroke-opacity="0.250980392156863" transform="matrix(1 0 0 1 357 1012 )" mask="url(#clip4)" />
  </g>
</svg>