<?xml version="1.0" encoding="utf-8"?>
<svg version="1.1" xmlns:xlink="http://www.w3.org/1999/xlink" width="5px" height="9px" xmlns="http://www.w3.org/2000/svg">
  <defs>
    <mask fill="white" id="clip3">
      <path d="M 0.114994323070004 0.0974210528913343  C 0.0383314796442291 0.178411221440769  0 0.267422673331584  0 0.364455622557515  C 0 0.461488571783447  0.0383314796442291 0.54636011243655  0.114994323070004 0.61907013462815  C 0.114994323070004 0.61907013462815  4.10500892088999 4.50038791858974  4.10500892088999 4.50038791858974  C 4.10500892088999 4.50038791858974  0.114994323070004 8.38170588762699  0.114994323070004 8.38170588762699  C 0.0383314796442291 8.45441590981859  0 8.5392874504717  0 8.63632039969763  C 0 8.73335334892356  0.0383314796442291 8.81822488957666  0.114994323070004 8.89093491176826  C 0.191657166495779 8.96364493395986  0.281142679445392 9  0.383450746056161 9  C 0.48575881266693 9  0.575244325616544 8.96765568551923  0.651907169042318 8.90296705077407  C 0.651907169042318 8.90296705077407  4.88500567693 4.76703456966618  4.88500567693 4.76703456966618  C 4.96166852035577 4.69432454747458  5 4.60531309558377  5 4.5  C 5 4.39468690441623  4.96166852035577 4.30567545252542  4.88500567693 4.23296543033382  C 4.88500567693 4.23296543033382  0.651907169042318 0.0970329492259313  0.651907169042318 0.0970329492259313  C 0.575244325616544 0.0323443144807723  0.48575881266693 0  0.383450746056161 0  C 0.281142679445392 0  0.191657166495779 0.0323443144807723  0.114994323070004 0.0970329492259313  Z " fill-rule="evenodd" />
    </mask>
  </defs>
  <g transform="matrix(1 0 0 1 -720 -1012 )">
    <path d="M 0.114994323070004 0.0974210528913343  C 0.0383314796442291 0.178411221440769  0 0.267422673331584  0 0.364455622557515  C 0 0.461488571783447  0.0383314796442291 0.54636011243655  0.114994323070004 0.61907013462815  C 0.114994323070004 0.61907013462815  4.10500892088999 4.50038791858974  4.10500892088999 4.50038791858974  C 4.10500892088999 4.50038791858974  0.114994323070004 8.38170588762699  0.114994323070004 8.38170588762699  C 0.0383314796442291 8.45441590981859  0 8.5392874504717  0 8.63632039969763  C 0 8.73335334892356  0.0383314796442291 8.81822488957666  0.114994323070004 8.89093491176826  C 0.191657166495779 8.96364493395986  0.281142679445392 9  0.383450746056161 9  C 0.48575881266693 9  0.575244325616544 8.96765568551923  0.651907169042318 8.90296705077407  C 0.651907169042318 8.90296705077407  4.88500567693 4.76703456966618  4.88500567693 4.76703456966618  C 4.96166852035577 4.69432454747458  5 4.60531309558377  5 4.5  C 5 4.39468690441623  4.96166852035577 4.30567545252542  4.88500567693 4.23296543033382  C 4.88500567693 4.23296543033382  0.651907169042318 0.0970329492259313  0.651907169042318 0.0970329492259313  C 0.575244325616544 0.0323443144807723  0.48575881266693 0  0.383450746056161 0  C 0.281142679445392 0  0.191657166495779 0.0323443144807723  0.114994323070004 0.0970329492259313  Z " fill-rule="nonzero" fill="#000000" stroke="none" fill-opacity="0.650980392156863" transform="matrix(1 0 0 1 720 1012 )" />
    <path d="M 0.114994323070004 0.0974210528913343  C 0.0383314796442291 0.178411221440769  0 0.267422673331584  0 0.364455622557515  C 0 0.461488571783447  0.0383314796442291 0.54636011243655  0.114994323070004 0.61907013462815  C 0.114994323070004 0.61907013462815  4.10500892088999 4.50038791858974  4.10500892088999 4.50038791858974  C 4.10500892088999 4.50038791858974  0.114994323070004 8.38170588762699  0.114994323070004 8.38170588762699  C 0.0383314796442291 8.45441590981859  0 8.5392874504717  0 8.63632039969763  C 0 8.73335334892356  0.0383314796442291 8.81822488957666  0.114994323070004 8.89093491176826  C 0.191657166495779 8.96364493395986  0.281142679445392 9  0.383450746056161 9  C 0.48575881266693 9  0.575244325616544 8.96765568551923  0.651907169042318 8.90296705077407  C 0.651907169042318 8.90296705077407  4.88500567693 4.76703456966618  4.88500567693 4.76703456966618  C 4.96166852035577 4.69432454747458  5 4.60531309558377  5 4.5  C 5 4.39468690441623  4.96166852035577 4.30567545252542  4.88500567693 4.23296543033382  C 4.88500567693 4.23296543033382  0.651907169042318 0.0970329492259313  0.651907169042318 0.0970329492259313  C 0.575244325616544 0.0323443144807723  0.48575881266693 0  0.383450746056161 0  C 0.281142679445392 0  0.191657166495779 0.0323443144807723  0.114994323070004 0.0970329492259313  Z " stroke-width="0.600000023841858" stroke="#000000" fill="none" stroke-opacity="0.650980392156863" transform="matrix(1 0 0 1 720 1012 )" mask="url(#clip3)" />
  </g>
</svg>