<?xml version="1.0" encoding="utf-8"?>
<svg version="1.1" xmlns:xlink="http://www.w3.org/1999/xlink" width="10px" height="5px" xmlns="http://www.w3.org/2000/svg">
  <g transform="matrix(1 0 0 1 -818 -1028 )">
    <path d="M 9.31300736436627 0.114986323473343  C 9.31300736436627 0.114986323473343  9.31214450049724 0.115395687569731  9.31214450049724 0.115395687569731  L 4.99956897934473 4.10508247574352  C 4.99956897934473 4.10508247574352  0.686993252552605 0.115395687569731  0.686993252552605 0.115395687569731  C 0.606204339006382 0.0387391446807448  0.511902627169601 0.000410810021964906  0.404088239140788 0.000410810021964906  C 0.296273851111976 0.000410810021964906  0.20197234491482 0.0387391446807448  0.121183431368598 0.115395687569731  C 0.0403945178223751 0.192052230458718  0 0.281530376845212  0 0.38383003526619  C 0 0.486129693687169  0.0359381272008581 0.571379431395612  0.107814388028813 0.639579205708776  C 0.107814388028813 0.639579205708776  4.70329492259313 4.88501512773994  4.70329492259313 4.88501512773994  C 4.78408383613935 4.96167167062893  4.88298544935137 5  5 5  C 5.11701455064863 5  5.21591616386065 4.96167167062893  5.29670507740687 4.88501512773994  C 5.29670507740687 4.88501512773994  9.89218561197119 0.652264419547858  9.89218561197119 0.652264419547858  C 9.96406187279914 0.575607876658871  10 0.483946995739726  10 0.377282551177341  C 10 0.270618106614957  9.95960548217763 0.181140350470691  9.8788165686314 0.10884859372311  C 9.79802765508518 0.0365568369755291  9.7037267658069 0.00027424501549915  9.59591237777809 0  C 9.48809798974928 -0.000271353156902597  9.39379627791249 0.0380569829749024  9.31300736436627 0.114986323473343  Z " fill-rule="nonzero" fill="#000000" stroke="none" fill-opacity="0.650980392156863" transform="matrix(1 0 0 1 818 1028 )" />
  </g>
</svg>