<?xml version="1.0" encoding="utf-8"?>
<svg version="1.1" xmlns:xlink="http://www.w3.org/1999/xlink" width="16px" height="16px" xmlns="http://www.w3.org/2000/svg">
  <g transform="matrix(1 0 0 1 -478 -908 )">
    <path d="M 486 908  C 490.48 908  494 911.52  494 916  C 494 920.48  490.48 924  486 924  C 481.52 924  478 920.48  478 916  C 478 911.52  481.52 908  486 908  Z " fill-rule="nonzero" fill="#ffffff" stroke="none" />
    <path d="M 486 908.5  C 490.2 908.5  493.5 911.8  493.5 916  C 493.5 920.2  490.2 923.5  486 923.5  C 481.8 923.5  478.5 920.2  478.5 916  C 478.5 911.8  481.8 908.5  486 908.5  Z " stroke-width="1" stroke="#dddddd" fill="none" />
  </g>
</svg>