<?xml version="1.0" encoding="utf-8"?>
<svg version="1.1" xmlns:xlink="http://www.w3.org/1999/xlink" width="214px" height="32px" xmlns="http://www.w3.org/2000/svg">
  <g transform="matrix(1 0 0 1 -622 -1014 )">
    <path d="M 623 1018  A 3 3 0 0 1 626 1015 L 832 1015  A 3 3 0 0 1 835 1018 L 835 1042  A 3 3 0 0 1 832 1045 L 626 1045  A 3 3 0 0 1 623 1042 L 623 1018  Z " fill-rule="nonzero" fill="#ffffff" stroke="none" />
    <path d="M 622.5 1018  A 3.5 3.5 0 0 1 626 1014.5 L 832 1014.5  A 3.5 3.5 0 0 1 835.5 1018 L 835.5 1042  A 3.5 3.5 0 0 1 832 1045.5 L 626 1045.5  A 3.5 3.5 0 0 1 622.5 1042 L 622.5 1018  Z " stroke-width="1" stroke="#000000" fill="none" stroke-opacity="0.149019607843137" />
  </g>
</svg>