<?xml version="1.0" encoding="utf-8"?>
<svg version="1.1" xmlns:xlink="http://www.w3.org/1999/xlink" width="128px" height="32px" xmlns="http://www.w3.org/2000/svg">
  <g transform="matrix(1 0 0 1 -993 -1014 )">
    <path d="M 994 1018  A 3 3 0 0 1 997 1015 L 1117 1015  A 3 3 0 0 1 1120 1018 L 1120 1042  A 3 3 0 0 1 1117 1045 L 997 1045  A 3 3 0 0 1 994 1042 L 994 1018  Z " fill-rule="nonzero" fill="#ffffff" stroke="none" />
    <path d="M 993.5 1018  A 3.5 3.5 0 0 1 997 1014.5 L 1117 1014.5  A 3.5 3.5 0 0 1 1120.5 1018 L 1120.5 1042  A 3.5 3.5 0 0 1 1117 1045.5 L 997 1045.5  A 3.5 3.5 0 0 1 993.5 1042 L 993.5 1018  Z " stroke-width="1" stroke="#000000" fill="none" stroke-opacity="0.149019607843137" />
  </g>
</svg>