<?xml version="1.0" encoding="utf-8"?>
<svg version="1.1" xmlns:xlink="http://www.w3.org/1999/xlink" width="302px" height="32px" xmlns="http://www.w3.org/2000/svg">
  <g transform="matrix(1 0 0 1 -408 -581 )">
    <path d="M 409 585  A 3 3 0 0 1 412 582 L 706 582  A 3 3 0 0 1 709 585 L 709 609  A 3 3 0 0 1 706 612 L 412 612  A 3 3 0 0 1 409 609 L 409 585  Z " fill-rule="nonzero" fill="#ffffff" stroke="none" />
    <path d="M 408.5 585  A 3.5 3.5 0 0 1 412 581.5 L 706 581.5  A 3.5 3.5 0 0 1 709.5 585 L 709.5 609  A 3.5 3.5 0 0 1 706 612.5 L 412 612.5  A 3.5 3.5 0 0 1 408.5 609 L 408.5 585  Z " stroke-width="1" stroke="#000000" fill="none" stroke-opacity="0.149019607843137" />
  </g>
</svg>