<?xml version="1.0" encoding="utf-8"?>
<svg version="1.1" xmlns:xlink="http://www.w3.org/1999/xlink" width="21px" height="17px" xmlns="http://www.w3.org/2000/svg">
  <g transform="matrix(1 0 0 1 -389 -520 )">
    <path d="M 8.69947858345313 0.681285624742188  L 8.69947858345313 0.678678512546875  C 8.96931417475781 0.678678512546875  9.19978244285156 0.773707568476563  9.39075303764063 0.966503143257812  C 9.58185399771094 1.15656125532812  9.6775348205625 1.38742058973438  9.67753483553906 1.65608298294531  C 9.67753483553906 1.93308811396094  9.58107186550781 2.16394746334375  9.38710309263281 2.35126811249219  L 4.21642745721094 7.52116161592188  L 19.4536652633672 7.52116161592188  C 19.7236312049766 7.52116161592188  19.9534477063594 7.61619067185156  20.1458522150391 7.80898624663281  C 20.3361710429063 7.99904435870313  20.4319822310391 8.22977334259375  20.4319822310391 8.49856608610938  C 20.4319822310391 8.77022665740625  20.3361710429062 9.00095564129688  20.1457218645234 9.19101375336719  C 19.9534477063594 9.3810718654375  19.7236312199531 9.47610092157813  19.4537956286484 9.47610092157813  L 4.21655780751562 9.47610092157813  L 9.38710309263281 14.6459944247969  C 9.58107186550781 14.8360525368672  9.67753483553906 15.0669118712734  9.67753483553906 15.3410491894844  C 9.67753483553906 15.6125793955  9.58185399771094 15.8434387446719  9.39075303764063 16.0334968567422  C 9.1997824430625 16.2262924315234  8.96918380947656 16.3213214874531  8.69947858345313 16.3213214874531  C 8.42416806714844 16.3213214874531  8.19239623525781 16.2262924315234  8.00429345369531 16.0389717817422  L 1.1608978678125 9.19648867836719  C 0.97292543634375 8.99834852910156  0.87867851240625 8.76462138210156  0.87867851240625 8.50130354860937  C 0.87867851240625 8.23537861789844  0.97292543634375 8.00451928370312  1.1608978678125 7.80624878413281  L 8.00429345369531 0.963896031062498  C 8.19787116046875 0.7764450311875  8.42951262665625 0.681285624742188  8.69947858345313 0.681285624742188  Z " fill-rule="nonzero" fill="#000000" stroke="none" fill-opacity="0.647058823529412" transform="matrix(1 0 0 1 389 520 )" />
  </g>
</svg>