<?xml version="1.0" encoding="utf-8"?>
<svg version="1.1" xmlns:xlink="http://www.w3.org/1999/xlink" width="13px" height="12px" xmlns="http://www.w3.org/2000/svg">
  <g transform="matrix(1 0 0 1 -589 -699 )">
    <path d="M 12.6388888945312 11.2000000042067  C 12.6388888945312 11.6666666736779  12.4222222236328 11.9179487235577  11.9166666708984 12  L 1.08333332910156 12  C 0.65 11.9179487235577  0.36111110546875 11.6666666736779  0.36111110546875 11.2000000042067  L 0.36111110546875 1.86666666526442  C 0.36111110546875 1.5435897421875  0.613888881835937 1.14871794591346  1.08333332910156 1.14871794591346  L 2.88888889453125 1.14871794591346  L 2.88888889453125 0.4307692265625  L 3.61111110546875 0.4307692265625  L 3.61111110546875 1.14871794591346  L 9.38888889453125 1.14871794591346  L 9.38888889453125 0.4307692265625  L 10.1111111054687 0.4307692265625  L 10.1111111054687 1.14871794591346  L 11.9166666708984 1.14871794591346  C 12.3861111181641 1.14871794591346  12.6388888945312 1.43589743870192  12.6388888945312 1.86666666526442  L 12.6388888945312 11.2000000042067  Z M 11.9166666708984 3.66153845733173  L 11.9166666708984 1.86666666526442  L 10.1111111054687 1.86666666526442  L 10.1111111054687 2.94358973798077  L 9.38888889453125 2.94358973798077  L 9.38888889453125 1.86666666526442  L 3.61111110546875 1.86666666526442  L 3.61111110546875 2.94358973798077  L 2.88888889453125 2.94358973798077  L 2.88888889453125 1.86666666526442  L 1.08333332910156 1.86666666526442  L 1.08333332910156 3.66153845733173  L 11.9166666708984 3.66153845733173  Z M 11.9166666708984 11  L 11.9166666708984 4.37948717668269  L 1.08333332910156 4.37948717668269  L 1.08333332910156 11  L 11.9166666708984 11  Z M 4.69444444726563 6.89230768810096  L 3.25 6.89230768810096  L 3.28611110546875 6.17435896875  L 4.69444444726563 6.17435896875  L 4.69444444726563 6.89230768810096  Z M 7.22222222363281 6.89230768810096  L 5.77777777636719 6.89230768810096  L 5.77777777636719 6.17435896875  L 7.22222222363281 6.17435896875  L 7.22222222363281 6.89230768810096  Z M 9.75 6.89230768810096  L 8.30555555273438 6.89230768810096  L 8.30555555273438 6.17435896875  L 9.71388889453125 6.17435896875  L 9.75 6.89230768810096  Z M 4.69444444726563 9.04615384615384  L 3.28611110546875 9.04615384615384  L 3.25 8.32820512680289  L 4.69444444726563 8.32820512680289  L 4.69444444726563 9.04615384615384  Z M 7.22222222363281 9.04615384615384  L 5.77777777636719 9.04615384615384  L 5.77777777636719 8.32820512680289  L 7.22222222363281 8.32820512680289  L 7.22222222363281 9.04615384615384  Z M 9.75 8.32820512680289  L 9.71388889453125 9.04615384615384  L 8.30555555273438 9.04615384615384  L 8.30555555273438 8.32820512680289  L 9.75 8.32820512680289  Z " fill-rule="nonzero" fill="#545e68" stroke="none" transform="matrix(1 0 0 1 589 699 )" />
  </g>
</svg>