<?xml version="1.0" encoding="utf-8"?>
<svg version="1.1" xmlns:xlink="http://www.w3.org/1999/xlink" width="22px" height="22px" preserveAspectRatio="xMinYMid meet" viewBox="374 786  22 20" xmlns="http://www.w3.org/2000/svg">
  <path d="M 365.5 1845.5  A 5 5 0 0 1 360.5 1840.5 L 360.5 801  A 5 5 0 0 1 365.5 796.5 L 386 796.5  " stroke-width="3" stroke-dasharray="9,3" stroke="#ff9900" fill="none" />
  <path d="M 354 1857  L 370 1845.5  L 354 1834  L 354 1857  Z M 385 792.5  A 4 4 0 0 0 381 796.5 A 4 4 0 0 0 385 800.5 A 4 4 0 0 0 389 796.5 A 4 4 0 0 0 385 792.5 Z " fill-rule="nonzero" fill="#ff9900" stroke="none" />
</svg>