<?xml version="1.0" encoding="utf-8"?>
<svg version="1.1" xmlns:xlink="http://www.w3.org/1999/xlink" width="72px" height="12px" preserveAspectRatio="xMinYMid meet" viewBox="1014 1495  72 10" xmlns="http://www.w3.org/2000/svg">
  <path d="M 1072 1500.5  L 1025 1500.5  A 5 5 0 0 1 1020.5 1495.5 L 1020.5 877  A 5 5 0 0 0 1015.5 872.5 L 568 872.5  A 5 5 0 0 1 563.5 867.5 L 563.5 865  " stroke-width="3" stroke-dasharray="9,3" stroke="#ff9900" fill="none" />
  <path d="M 1070 1512  L 1086 1500.5  L 1070 1489  L 1070 1512  Z M 563.5 862  A 4 4 0 0 0 559.5 866 A 4 4 0 0 0 563.5 870 A 4 4 0 0 0 567.5 866 A 4 4 0 0 0 563.5 862 Z " fill-rule="nonzero" fill="#ff9900" stroke="none" />
</svg>