<?xml version="1.0" encoding="utf-8"?>
<svg version="1.1" xmlns:xlink="http://www.w3.org/1999/xlink" width="12px" height="873px" preserveAspectRatio="xMidYMin meet" viewBox="1017 866  10 873" xmlns="http://www.w3.org/2000/svg">
  <path d="M 1072 1733.5  L 1027 1733.5  A 5 5 0 0 1 1022.5 1728 L 1022.5 1503  A 3 3 0 0 0 1025.5 1500 A 3 3 0 0 0 1022.5 1497 L 1022.5 877  A 5 5 0 0 0 1017.5 872.5 L 568 872.5  A 5 5 0 0 1 563.5 867.5 L 563.5 865  " stroke-width="3" stroke-dasharray="9,3" stroke="#ff9900" fill="none" />
  <path d="M 1070 1745  L 1086 1733.5  L 1070 1722  L 1070 1745  Z M 563.5 862  A 4 4 0 0 0 559.5 866 A 4 4 0 0 0 563.5 870 A 4 4 0 0 0 567.5 866 A 4 4 0 0 0 563.5 862 Z " fill-rule="nonzero" fill="#ff9900" stroke="none" />
</svg>