<?xml version="1.0" encoding="utf-8"?>
<svg version="1.1" xmlns:xlink="http://www.w3.org/1999/xlink" width="14px" height="14px" xmlns="http://www.w3.org/2000/svg">
  <g transform="matrix(1 0 0 1 -386 -1600 )">
    <path d="M 7 0  C 8.97933328151703 0.0520000010728836  10.6278337240219 0.736833453178406  11.9455003738403 2.05450010299683  C 13.2631670236588 3.37216675281525  13.9479999989271 5.02066671848297  14 7  C 13.9479999989271 8.97933328151703  13.2631670236588 10.6278337240219  11.9455003738403 11.9455003738403  C 10.6278337240219 13.2631670236588  8.97933328151703 13.9479999989271  7 14  C 5.02066671848297 13.9479999989271  3.37216675281525 13.2631670236588  2.05450010299683 11.9455003738403  C 0.736833453178406 10.6278337240219  0.0520000010728836 8.97933328151703  0 7  C 0.0520000010728836 5.02066671848297  0.736833453178406 3.37216675281525  2.05450010299683 2.05450010299683  C 3.37216675281525 0.736833453178406  5.02066671848297 0.0520000010728836  7 0  Z M 9.8129997253418 4.7024998664856  C 9.8129997253418 4.7024998664856  6.125 8.375  6.125 8.375  C 6.125 8.375  4.57800006866455 6.82800006866455  4.57800006866455 6.82800006866455  C 4.45300006866455 6.71333340555429  4.30983330309391 6.6560001373291  4.14849996566772 6.6560001373291  C 3.98716662824154 6.6560001373291  3.84650003165007 6.7158330976963  3.72650003433227 6.83549976348877  C 3.60650003701448 6.95516642928123  3.54666659800569 7.09316694736481  3.54699993133545 7.2495002746582  C 3.54733326466521 7.4058336019516  3.60466653108597 7.54650020599365  3.7189998626709 7.67150020599365  C 3.7189998626709 7.67150020599365  5.70349979400635 9.6560001373291  5.70349979400635 9.6560001373291  C 5.8181664571166 9.77066680043936  5.95883353054523 9.82800006866455  6.12550020217896 9.82800006866455  C 6.29216687381268 9.82800006866455  6.43283347040415 9.77066680043936  6.5475001335144 9.6560001373291  C 6.5475001335144 9.6560001373291  10.6569995880127 5.54650020599365  10.6569995880127 5.54650020599365  C 10.8133329153061 5.39016687870026  10.8628333620727 5.19999983906746  10.8055000305176 4.97599983215332  C 10.7481666989625 4.75199982523918  10.6075001060963 4.611333232373  10.3835000991821 4.55399990081787  C 10.159500092268 4.49666656926274  9.96933305263519 4.5461665391922  9.8129997253418 4.7024998664856  Z " fill-rule="nonzero" fill="#17bf6a" stroke="none" transform="matrix(1 0 0 1 386 1600 )" />
  </g>
</svg>