<?xml version="1.0" encoding="utf-8"?>
<svg version="1.1" xmlns:xlink="http://www.w3.org/1999/xlink" width="11px" height="12px" xmlns="http://www.w3.org/2000/svg">
  <g transform="matrix(1 0 0 1 -1135 -978 )">
    <path d="M 10.0833333333333 11.1428571428571  L 10.0833333333333 4.28571428571429  L 6.41666666666667 4.28571428571429  L 6.41666666666667 0.857142857142857  L 1 0.857142857142857  L 1 11.1428571428571  L 10.0833333333333 11.1428571428571  Z M 7.33333333333333 3.42857142857143  L 9.71116654078166 3.42857142857143  L 7.33333333333333 1.20514277049473  L 7.33333333333333 3.42857142857143  Z M 0.128791729609172 0.12042852810451  C 0.214652839427193 0.0401428150279181  0.324500001966953 0  0.458333333333333 0  C 0.458333333333333 0  7.33333333333333 0  7.33333333333333 0  L 11 3.42857142857143  C 11 3.42857142857143  11 11.5714285714286  11 11.5714285714286  C 11 11.6965714267322  10.9570693802088 11.7992856566395  10.8712082703908 11.8795713697161  C 10.7853471605728 11.9598570827927  10.675499998033 12  10.5416666666667 12  C 10.5416666666667 12  0.458333333333333 12  0.458333333333333 12  C 0.324500001966953 12  0.214652839427193 11.9598570827927  0.128791729609172 11.8795713697161  C 0.0429306197911501 11.7992856566395  0 11.6965714267322  0 11.5714285714286  C 0 11.5714285714286  0 0.428571428571429  0 0.428571428571429  C 0 0.3034285732678  0.0429306197911501 0.200714241181101  0.128791729609172 0.12042852810451  Z M 2.75 6.85714285714286  L 2.75 6  L 8.25 6  L 8.25 6.85714285714286  L 2.75 6.85714285714286  Z M 2.75 4.28571428571429  L 2.75 3.42857142857143  L 5.04166666666667 3.42857142857143  L 5.04166666666667 4.28571428571429  L 2.75 4.28571428571429  Z M 2.75 9.42857142857143  L 2.75 8.57142857142857  L 8.25 8.57142857142857  L 8.25 9.42857142857143  L 2.75 9.42857142857143  Z " fill-rule="nonzero" fill="#000000" stroke="none" fill-opacity="0.650980392156863" transform="matrix(1 0 0 1 1135 978 )" />
  </g>
</svg>