<?xml version="1.0" encoding="utf-8"?>
<svg version="1.1" xmlns:xlink="http://www.w3.org/1999/xlink" width="22px" height="22px" xmlns="http://www.w3.org/2000/svg">
  <g transform="matrix(1 0 0 1 -394 -1438 )">
    <path d="M 11 0  C 14.1103808709553 0.0817142874002457  16.7008815663201 1.15788114070892  18.7715005874634 3.22850016185216  C 20.8421196086066 5.29911918299539  21.9182857125998 7.88961912904467  22 11  C 21.9182857125998 14.1103808709553  20.8421196086066 16.7008815663201  18.7715005874634 18.7715005874634  C 16.7008815663201 20.8421196086066  14.1103808709553 21.9182857125998  11 22  C 7.88961912904467 21.9182857125998  5.29911918299539 20.8421196086066  3.22850016185216 18.7715005874634  C 1.15788114070892 16.7008815663201  0.0817142874002457 14.1103808709553  0 11  C 0.0817142874002457 7.88961912904467  1.15788114070892 5.29911918299539  3.22850016185216 3.22850016185216  C 5.29911918299539 1.15788114070892  7.88961912904467 0.0817142874002457  11 0  Z M 10.9984286853245 4.71428571428571  C 10.9984286853245 4.71428571428571  11 4.71428571428571  11 4.71428571428571  C 10.5741428605148 4.71428571428571  10.2221429667303 4.86985703664167  9.94400010790144 5.18099989209856  C 9.66585724907262 5.49214274755546  9.54302402585745 5.86038096461977  9.57550021580287 6.28571428571429  C 9.57550021580287 6.28571428571429  10.14042867933 12.5714285714286  10.14042867933 12.5714285714286  C 10.1734286788851 12.8008571394852  10.2674526487078 12.9849754987018  10.4225002697536 13.1237850189209  C 10.5775478907994 13.26259453914  10.7697853999478 13.3322617968661  10.9992139680045 13.3327856063843  C 11.2286425360612 13.3333094159025  11.4208807945251 13.2636421642133  11.5759284155709 13.1237850189209  C 11.7309760366167 12.9839278736285  11.8249992571239 12.7998095261199  11.857999256679 12.5714285714286  C 11.857999256679 12.5714285714286  12.4229292188372 6.28571428571429  12.4229292188372 6.28571428571429  C 12.4559292183923 5.85985714622906  12.3330945053271 5.49161892916475  12.0544278281076 5.18099989209856  C 11.775761150888 4.87038085503238  11.423762006419 4.71480952380391  10.9984286853245 4.71428571428571  Z M 11 17.2857142857143  C 11.3603809412037 17.2694761907416  11.6592148840427 17.1466429616724  11.8965005874634 16.9172143936157  C 12.133786290884 16.6877858255591  12.2524284635271 16.3931429684162  12.2524284635271 16.0332858221872  C 12.2524284635271 15.6734286759581  12.133786290884 15.3745947565351  11.8965005874634 15.1367852347238  C 11.6592148840427 14.8989757129124  11.3603809412037 14.7803335491418  11 14.78085735866  C 10.6396190587963 14.7813811681782  10.3407858652728 14.9000233262777  10.1035001618522 15.1367852347238  C 9.86621445843152 15.3735471431698  9.74757153647287 15.6723810625928  9.74757153647287 16.0332858221872  C 9.74757153647287 16.3941905817815  9.86621445843152 16.6888334389244  10.1035001618522 16.9172143936157  C 10.3407858652728 17.1455953483071  10.6396190587963 17.2684285715222  11 17.2857142857143  Z " fill-rule="nonzero" fill="#ff9900" stroke="none" transform="matrix(1 0 0 1 394 1438 )" />
  </g>
</svg>